<svg id="Capa_1" data-name="Capa 1" xmlns="http://www.w3.org/2000/svg" viewBox="0 0 342.9 407.4"><defs><style>.cls-1{fill:#010002;}</style></defs><title>shopping-bag000</title><path class="cls-1" d="M245.1,123.5c4.5,0,8.1-13.6,8.1-18.1s-3.6-19.1-8.1-19.1H153.5c-4.5,0-8.1,14.6-8.1,19.1s3.6,18.1,8.1,18.1Z" transform="translate(-32.3)"/><path class="cls-1" d="M367.1,86.3H311.7c-4.5,0-8.1,14.6-8.1,19.1s3.6,18.1,8.1,18.1h26.2V370.2H69.5V123.5H93c4.5,0,8.1-13.6,8.1-18.1S97.5,86.3,93,86.3H40.4a8.07,8.07,0,0,0-8.1,8.1V399.3a8.07,8.07,0,0,0,8.1,8.1H367.1a8.07,8.07,0,0,0,8.1-8.1V94.4A8.07,8.07,0,0,0,367.1,86.3Z" transform="translate(-32.3)"/><path class="cls-1" d="M277.6,154.8a8.07,8.07,0,0,0,8.1-8.1V67.4C285.7,30.2,250.6,0,201.1,0c-49.3,0-84.4,30.2-84.4,67.4v79.3a8.1,8.1,0,0,0,16.2,0V67.4c0-28.2,27.8-51.1,68.4-51.1,40.3,0,68.2,22.9,68.2,51.1v79.3A8.07,8.07,0,0,0,277.6,154.8Z" transform="translate(-32.3)"/><path class="cls-1" d="M103.9,167.6a20.9,20.9,0,1,0,41.8,0,8.1,8.1,0,0,0-16.2,0,4.61,4.61,0,0,1-4.7,4.6,4.67,4.67,0,0,1-4.7-4.6,8.1,8.1,0,0,0-16.2,0Z" transform="translate(-32.3)"/><path class="cls-1" d="M277.6,188.5a21,21,0,0,0,20.9-20.9,8.1,8.1,0,0,0-16.2,0,4.61,4.61,0,0,1-4.7,4.6,4.67,4.67,0,0,1-4.7-4.6,8.1,8.1,0,1,0-16.2,0A21,21,0,0,0,277.6,188.5Z" transform="translate(-32.3)"/></svg>